<svg xmlns="http://www.w3.org/2000/svg" xmlns:xlink="http://www.w3.org/1999/xlink" version="1.1" x="0px" y="0px" viewBox="0 0 100 125" ><g><path d="M87.982,71.179c-1.119-2.273-4.438-3.289-6.724-2.154l-17.664,8.918c0.271,1.114,0.425,3.046,0.061,4.183   c-1.08,3.261-5.182,5.009-8.43,3.963l-11.944-3.874l0.565-2.074l11.939,3.873c2.392,0.758,4.974-0.56,5.774-2.954   c0.218-0.728,0.26-1.497,0.113-2.216c-0.132-0.778-0.468-1.487-0.938-2.101c-0.571-0.673-1.305-1.158-2.134-1.42l-21.8-7.03   c0,0-1.798-0.556-3.566-0.68c-1.92-0.135-4.097,0.888-4.097,0.888L8.801,78.556v20.325l17.291-10.415l24.794,4.693   c1.817,0.452,3.754,0.211,5.253-0.48l29.514-14.772C88.792,76.352,89.127,73.48,87.982,71.179z"/><path d="M43.101,57.15v10.354h4.638v-4.221h3.564v4.221h4.674v-4.221h3.563v4.221h4.699v-4.099h3.566v4.099h4.624V57.15h7.846   v-8.038c4.259-5.081,6.828-11.618,6.828-18.759c0-16.166-13.138-29.301-29.335-29.301c-16.198,0-29.336,13.135-29.336,29.301   c0,7.129,2.562,13.66,6.81,18.739v8.058H43.101z M69.682,30.192c4.516,0,8.171,3.649,8.171,8.161c0,4.512-3.655,8.167-8.171,8.167   c-4.52,0-8.175-3.656-8.175-8.167C61.507,33.841,65.162,30.192,69.682,30.192z M62.273,53.907h-9.029l4.517-10.428L62.273,53.907z    M45.842,30.192c4.513,0,8.176,3.649,8.176,8.161c0,4.512-3.663,8.167-8.176,8.167c-4.514,0-8.176-3.656-8.176-8.167   C37.666,33.841,41.328,30.192,45.842,30.192z"/></g></svg>